<?xml version="1.0" standalone="no"?>
<!DOCTYPE svg PUBLIC "-//W3C//DTD SVG 20010904//EN"
 "http://www.w3.org/TR/2001/REC-SVG-20010904/DTD/svg10.dtd">
<svg version="1.0" xmlns="http://www.w3.org/2000/svg"
 width="512.000000pt" height="512.000000pt" viewBox="0 0 512.000000 512.000000"
 preserveAspectRatio="xMidYMid meet">
<metadata>
Created by potrace 1.11, written by Peter Selinger 2001-2013
</metadata>
<g transform="translate(0.000000,512.000000) scale(0.100000,-0.100000)"
fill="#000000" stroke="none">
<path d="M473 4019 c-155 -11 -218 -42 -261 -129 l-27 -55 0 -1265 c0 -1373
-2 -1329 55 -1388 58 -61 141 -86 290 -86 113 0 179 11 240 42 47 23 59 36 83
84 34 69 36 95 37 424 l0 251 263 0 c300 0 375 6 483 34 144 38 256 92 400
194 99 71 143 113 204 195 105 141 175 308 197 471 9 65 10 254 1 324 -17 146
-96 345 -184 466 -65 87 -92 116 -164 173 -185 148 -407 245 -600 263 -90 8
-904 9 -1017 2z m982 -713 c98 -18 203 -92 248 -174 49 -91 52 -239 6 -337
-36 -77 -159 -167 -251 -182 -18 -3 -152 -6 -298 -6 l-265 -1 -3 355 -2 354
262 -1 c145 0 281 -4 303 -8z"/>
<path d="M2942 4018 c-163 -13 -236 -59 -269 -166 -17 -53 -18 -138 -18 -1312
l0 -1255 26 -56 c49 -104 121 -133 329 -133 203 1 270 29 319 133 l26 56 2
440 c1 242 2 447 3 456 0 14 43 16 428 16 235 0 454 3 487 7 161 19 227 133
221 379 -5 183 -48 268 -155 307 -50 18 -84 19 -514 20 -253 0 -463 2 -465 5
-7 7 -5 386 2 392 3 4 313 7 689 8 678 1 682 1 738 23 116 46 144 114 143 347
-1 134 -11 181 -51 242 -28 44 -82 75 -156 88 -50 10 -1676 12 -1785 3z"/>
</g>
</svg>
