<svg xmlns="http://www.w3.org/2000/svg" width="3200" height="3200" viewBox="150 150 3200 3200">
  <defs>
    <style>
      .cls-1 {
        fill: #fff;
        stroke: #f77622;
        stroke-linejoin: round;
        stroke-width: 80px;
      }

      .cls-2 {
        fill: #f77622;
        fill-rule: evenodd;
      }
    </style>
  </defs>
  <circle class="cls-1" cx="1750" cy="1750" r="1500"/>
  <path id="x" class="cls-2" d="M1669.77,2425.97q20.91-19.2,20.92-32.8t-20.92-32.8q-20.91-19.2-35.44-19.2t-35.43,19.2l-63.91,59.73-64.49-59.73q-20.91-19.2-35.14-19.2-14.25,0-35.44,19.2-21.21,19.2-21.21,32.8t20.92,32.8l64.48,59.73-64.48,59.73q-20.91,19.2-20.92,32.8t21.21,32.54q21.195,18.93,35.44,18.93,14.22,0,35.14-19.2l64.49-59.2,63.91,59.2q20.91,19.2,35.43,19.2t35.44-18.93q20.91-18.93,20.92-32.54,0-13.59-20.92-32.8l-64.48-59.73Z"/>
  <path id="x-2" data-name="x" class="cls-2" d="M2100.77,2425.97q20.91-19.2,20.92-32.8t-20.92-32.8q-20.91-19.2-35.44-19.2t-35.43,19.2l-63.91,59.73-64.49-59.73q-20.91-19.2-35.14-19.2-14.25,0-35.44,19.2-21.21,19.2-21.21,32.8t20.92,32.8l64.48,59.73-64.48,59.73q-20.91,19.2-20.92,32.8t21.21,32.54q21.195,18.93,35.44,18.93,14.22,0,35.14-19.2l64.49-59.2,63.91,59.2q20.91,19.2,35.43,19.2t35.44-18.93q20.91-18.93,20.92-32.54,0-13.59-20.92-32.8l-64.48-59.73Z"/>
  <path id="_" data-name=")" class="cls-2" d="M1366.6,2628.25q-13.44-3.165-35.51-3.17t-34.55,3.52q-26.85,6.36-26.87,42.32,0,47.94,45.58,86.39,45.6,38.415,117.56,61,147.765,45.825,316.68,45.84,167.925,0,314.76-43.73,74.85-22.575,121.4-61.35,46.53-38.79,46.54-88.86,0-22.575-11.04-33.85t-53.74-11.28q-42.7,0-53.26,14.1-5.745,8.46-5.75,27.51v4.23q0,27.495-85.41,56.41-41.28,13.4-112.76,22.22-71.505,8.8-158.82,8.81-177.54,0-272.54-29.62-42.21-13.395-63.81-28.56t-21.59-28.56q0-13.395-.96-19.39-0.945-6-6.72-13.4Q1380.03,2631.42,1366.6,2628.25Z"/>
</svg>
